<svg width="24" height="24" viewBox="0 0 24 24" fill="none" xmlns="http://www.w3.org/2000/svg">
<path d="M23.0002 15.97C23.0002 19.84 19.8702 22.97 16.0002 22.97L17.0502 21.22" stroke="#333333" stroke-width="1.5" stroke-linecap="round" stroke-linejoin="round"/>
<path d="M1.00023 7.96997C1.00023 4.09997 4.13023 0.969971 8.00023 0.969971L6.95023 2.71997" stroke="#333333" stroke-width="1.5" stroke-linecap="round" stroke-linejoin="round"/>
<path d="M6.61986 13.0698H9.42986C10.0499 13.0698 10.5599 13.6298 10.5599 14.1998C10.5599 14.8198 10.0599 15.3298 9.42986 15.3298H6.61986V13.0698Z" stroke="#333333" stroke-width="1.5" stroke-miterlimit="10" stroke-linecap="round" stroke-linejoin="round"/>
<path d="M6.61986 15.3301H9.83986C10.5499 15.3301 11.1299 15.8301 11.1299 16.4601C11.1299 17.0801 10.5499 17.5901 9.83986 17.5901H6.61986V15.3301Z" stroke="#333333" stroke-width="1.5" stroke-miterlimit="10" stroke-linecap="round" stroke-linejoin="round"/>
<path d="M8.41967 17.5801V18.7001" stroke="#333333" stroke-width="1.5" stroke-miterlimit="10" stroke-linecap="round" stroke-linejoin="round"/>
<path d="M8.41967 11.95V13.0699" stroke="#333333" stroke-width="1.5" stroke-miterlimit="10" stroke-linecap="round" stroke-linejoin="round"/>
<path d="M21.4999 8.66998C21.4999 12.08 18.7399 14.84 15.3299 14.84H14.8399C14.6099 11.81 12.1899 9.38997 9.1599 9.15997V8.66998C9.1599 5.25998 11.9199 2.5 15.3299 2.5C18.7399 2.5 21.4999 5.25998 21.4999 8.66998Z" stroke="#333333" stroke-width="1.5" stroke-miterlimit="10" stroke-linecap="round" stroke-linejoin="round"/>
<path d="M14.85 15.33C14.85 18.74 12.09 21.4999 8.68 21.4999C5.27 21.4999 2.51 18.74 2.51 15.33C2.51 11.92 5.27 9.15991 8.68 9.15991C8.84 9.15991 8.99 9.16993 9.16 9.17993C12.19 9.40993 14.61 11.8299 14.84 14.8599C14.84 15.0099 14.85 15.16 14.85 15.33Z" stroke="#333333" stroke-width="1.5" stroke-miterlimit="10" stroke-linecap="round" stroke-linejoin="round"/>
</svg>
